<svg width="22" height="22" viewBox="0 0 22 22" fill="none" xmlns="http://www.w3.org/2000/svg">
<rect width="22" height="22" rx="11" fill="#E2EBF7"/>
<path d="M14.8889 10H7.11111C6.49746 10 6 10.4884 6 11.0909V14.9091C6 15.5116 6.49746 16 7.11111 16H14.8889C15.5025 16 16 15.5116 16 14.9091V11.0909C16 10.4884 15.5025 10 14.8889 10Z" stroke="#0E56C0" stroke-width="1.5" stroke-linecap="round" stroke-linejoin="round"/>
<path d="M8 10V8.22222C8 7.63285 8.31607 7.06762 8.87868 6.65087C9.44129 6.23413 10.2044 6 11 6C11.7956 6 12.5587 6.23413 13.1213 6.65087C13.6839 7.06762 14 7.63285 14 8.22222V10" stroke="#0E56C0" stroke-width="1.5" stroke-linecap="round" stroke-linejoin="round"/>
</svg>
