<svg width="44" height="44" viewBox="0 0 44 44" fill="none" xmlns="http://www.w3.org/2000/svg">
<path d="M14.2099 9.15185C14.073 9.28874 13.9691 9.45373 13.8823 9.63461L13.8725 9.62484L0.164591 40.5044L0.178035 40.5178C-0.0761781 41.0104 0.34914 42.0126 1.22055 42.8852C2.09197 43.7566 3.09415 44.1819 3.58669 43.9277L3.59891 43.9399L34.4785 30.2308L34.4687 30.2198C34.6483 30.1342 34.8133 30.0303 34.9514 29.891C36.8605 27.982 33.7647 21.7916 28.0388 16.0645C22.3105 10.3374 16.1201 7.24281 14.2099 9.15185Z" fill="#DD2E44"/>
<path d="M15.8891 14.6655L0.509245 39.7275L0.164591 40.5036L0.178035 40.517C-0.0761781 41.0096 0.34914 42.0118 1.22055 42.8844C1.5041 43.1679 1.79864 43.383 2.08708 43.5652L20.7778 20.7764L15.8891 14.6655Z" fill="#EA596E"/>
<path d="M28.1257 15.9686C33.8332 21.6786 37.0023 27.7651 35.2008 29.5641C33.4006 31.3656 27.3141 28.1977 21.6029 22.4901C15.8941 16.7801 12.7262 10.6912 14.5265 8.89097C16.328 7.0907 22.4144 10.2586 28.1257 15.9686Z" fill="#A0041E"/>
<path d="M22.7198 16.6325C22.4766 16.8293 22.1588 16.9319 21.8227 16.8953C20.7619 16.7804 19.8697 16.4113 19.2452 15.8283C18.584 15.2111 18.2576 14.3825 18.3469 13.5526C18.5033 12.0958 19.965 10.7587 22.4571 11.0276C23.4262 11.1315 23.8589 10.8198 23.8736 10.6707C23.8907 10.5228 23.535 10.1256 22.5658 10.0205C21.505 9.90563 20.6128 9.53653 19.987 8.95355C19.3258 8.33635 18.9983 7.50771 19.0887 6.67785C19.2476 5.22102 20.7081 3.88395 23.1977 4.15406C23.9041 4.22983 24.2769 4.08439 24.4345 3.99028C24.5604 3.91329 24.6105 3.83996 24.6154 3.79718C24.6301 3.6493 24.2793 3.25209 23.3077 3.14698C22.6367 3.07365 22.1503 2.47234 22.2248 1.80014C22.2969 1.12916 22.897 0.64396 23.5705 0.717291C26.06 0.984948 27.204 2.60189 27.0463 4.05995C26.8874 5.51923 25.4269 6.85385 22.9349 6.58619C22.2285 6.50919 21.8594 6.65585 21.7005 6.74996C21.5746 6.82574 21.5233 6.90029 21.5184 6.94184C21.5025 7.09095 21.8557 7.48694 22.8274 7.59204C25.3169 7.86092 26.4609 9.47664 26.3032 10.9347C26.1456 12.3915 24.6851 13.7286 22.1943 13.4585C21.4879 13.3827 21.1163 13.5294 20.9574 13.6223C20.8303 13.7005 20.7814 13.7738 20.7766 13.8154C20.7607 13.9633 21.1139 14.3605 22.0843 14.4656C22.754 14.5389 23.2417 15.1414 23.1671 15.8124C23.1329 16.1473 22.963 16.4369 22.7198 16.6325Z" fill="#AA8DD8"/>
<path d="M37.4721 27.9353C39.8834 27.2545 41.5468 28.33 41.9428 29.7417C42.3388 31.152 41.4808 32.9376 39.0707 33.616C38.1296 33.8799 37.8473 34.3297 37.8852 34.4727C37.9267 34.6169 38.4046 34.854 39.3432 34.5888C41.7534 33.9105 43.4168 34.986 43.8128 36.3964C44.2112 37.808 43.3508 39.5912 40.9394 40.2707C39.9996 40.5347 39.716 40.9857 39.7576 41.1287C39.7979 41.2717 40.2745 41.5088 41.2144 41.2448C41.8622 41.0627 42.5392 41.4403 42.7213 42.0893C42.9022 42.7395 42.5246 43.4142 41.8744 43.5975C39.4655 44.2758 37.8009 43.2027 37.4024 41.7899C37.0064 40.3795 37.8656 38.5963 40.2782 37.9168C41.2193 37.6516 41.5016 37.2031 41.4601 37.0588C41.4209 36.9158 40.9443 36.6775 40.0057 36.9415C37.5931 37.621 35.9309 36.548 35.5337 35.1339C35.1365 33.7235 35.9957 31.9404 38.4071 31.2596C39.3457 30.9968 39.628 30.5446 39.5889 30.4029C39.5474 30.2586 39.0719 30.0215 38.1321 30.2855C37.4819 30.4689 36.8085 30.09 36.6251 29.441C36.443 28.7932 36.8219 28.1186 37.4721 27.9353Z" fill="#77B255"/>
<path d="M28.1115 24.6395C27.7522 24.6395 27.3978 24.4818 27.1558 24.1812C26.7341 23.6532 26.8209 22.8844 27.3464 22.4628C27.6129 22.2489 33.9682 17.2575 42.95 18.542C43.6185 18.6374 44.0829 19.2558 43.9876 19.9243C43.8923 20.5916 43.2787 21.061 42.6041 20.9607C34.6685 19.8339 28.9316 24.3266 28.8754 24.3718C28.648 24.5527 28.3792 24.6395 28.1115 24.6395Z" fill="#AA8DD8"/>
<path d="M7.03188 19.5545C6.91578 19.5545 6.79722 19.5374 6.6799 19.5032C6.03336 19.3089 5.66671 18.6281 5.86104 17.9816C7.24576 13.3703 8.50094 6.01156 6.95855 4.09274C6.78622 3.87519 6.5259 3.66131 5.92948 3.70653C4.78308 3.79453 4.89185 6.21322 4.89307 6.23766C4.9444 6.91109 4.43842 7.49773 3.76622 7.54784C3.08303 7.58939 2.50616 7.09319 2.45605 6.41977C2.33016 4.73439 2.85448 1.48828 5.74615 1.26951C7.03677 1.17174 8.10862 1.62028 8.86515 2.56135C11.7629 6.168 8.82115 16.6237 8.20273 18.6843C8.04385 19.2135 7.55742 19.5545 7.03188 19.5545Z" fill="#77B255"/>
<path d="M31.1655 13.4439C32.178 13.4439 32.9988 12.6231 32.9988 11.6106C32.9988 10.5981 32.178 9.77734 31.1655 9.77734C30.1531 9.77734 29.3323 10.5981 29.3323 11.6106C29.3323 12.6231 30.1531 13.4439 31.1655 13.4439Z" fill="#5C913B"/>
<path d="M2.4446 24.4439C3.79458 24.4439 4.88896 23.3495 4.88896 21.9995C4.88896 20.6496 3.79458 19.5552 2.4446 19.5552C1.09462 19.5552 0.000244141 20.6496 0.000244141 21.9995C0.000244141 23.3495 1.09462 24.4439 2.4446 24.4439Z" fill="#9266CC"/>
<path d="M39.7215 25.6656C40.7339 25.6656 41.5547 24.8448 41.5547 23.8323C41.5547 22.8198 40.7339 21.999 39.7215 21.999C38.709 21.999 37.8882 22.8198 37.8882 23.8323C37.8882 24.8448 38.709 25.6656 39.7215 25.6656Z" fill="#5C913B"/>
<path d="M28.7216 40.3316C29.7341 40.3316 30.5548 39.5108 30.5548 38.4983C30.5548 37.4858 29.7341 36.665 28.7216 36.665C27.7091 36.665 26.8883 37.4858 26.8883 38.4983C26.8883 39.5108 27.7091 40.3316 28.7216 40.3316Z" fill="#5C913B"/>
<path d="M34.2207 7.33305C35.5707 7.33305 36.6651 6.23867 36.6651 4.88869C36.6651 3.53871 35.5707 2.44434 34.2207 2.44434C32.8707 2.44434 31.7764 3.53871 31.7764 4.88869C31.7764 6.23867 32.8707 7.33305 34.2207 7.33305Z" fill="#FFCC4D"/>
<path d="M39.7215 12.2217C40.7339 12.2217 41.5547 11.4009 41.5547 10.3884C41.5547 9.37596 40.7339 8.55518 39.7215 8.55518C38.709 8.55518 37.8882 9.37596 37.8882 10.3884C37.8882 11.4009 38.709 12.2217 39.7215 12.2217Z" fill="#FFCC4D"/>
<path d="M36.0537 17.1099C37.0662 17.1099 37.887 16.2891 37.887 15.2766C37.887 14.2641 37.0662 13.4434 36.0537 13.4434C35.0412 13.4434 34.2205 14.2641 34.2205 15.2766C34.2205 16.2891 35.0412 17.1099 36.0537 17.1099Z" fill="#FFCC4D"/>
<path d="M9.16737 30.5542C10.1799 30.5542 11.0006 29.7334 11.0006 28.721C11.0006 27.7085 10.1799 26.8877 9.16737 26.8877C8.15489 26.8877 7.33411 27.7085 7.33411 28.721C7.33411 29.7334 8.15489 30.5542 9.16737 30.5542Z" fill="#FFCC4D"/>
</svg>
