<svg width="20" height="20" viewBox="0 0 20 20" fill="none" xmlns="http://www.w3.org/2000/svg">
<g clip-path="url(#clip0_519:1258)">
<g filter="url(#filter0_d_519:1258)">
<path d="M11.8224 16.6234C15.8043 15.4824 18.1073 11.3295 16.9663 7.34761C15.8254 3.36571 11.6725 1.06268 7.69057 2.20364C3.70868 3.3446 1.40564 7.4975 2.54661 11.4794C3.68757 15.4613 7.84046 17.7643 11.8224 16.6234Z" fill="#0E56C0" fill-opacity="0.56"/>
</g>
<path d="M11.8224 16.6234C15.8043 15.4824 18.1073 11.3295 16.9663 7.34761C15.8254 3.36571 11.6725 1.06268 7.69057 2.20364C3.70868 3.3446 1.40564 7.4975 2.54661 11.4794C3.68757 15.4613 7.84046 17.7643 11.8224 16.6234Z" fill="#F7931A"/>
<path style="mix-blend-mode:soft-light" d="M11.8224 16.6234C15.8043 15.4824 18.1073 11.3295 16.9663 7.34761C15.8254 3.36571 11.6725 1.06268 7.69057 2.20364C3.70868 3.3446 1.40564 7.4975 2.54661 11.4794C3.68757 15.4613 7.84046 17.7643 11.8224 16.6234Z" fill="url(#paint0_linear_519:1258)"/>
<path d="M11.7534 16.383C15.6026 15.28 17.8288 11.2656 16.7259 7.41639C15.623 3.56722 11.6085 1.34096 7.75933 2.44389C3.91016 3.54682 1.6839 7.56128 2.78682 11.4104C3.88975 15.2596 7.90422 17.4859 11.7534 16.383Z" stroke="black" stroke-opacity="0.097"/>
<g filter="url(#filter1_d_519:1258)">
<path d="M12.9393 7.47158C12.8016 6.42088 11.8787 6.09913 10.7264 6.03819L10.6755 4.57562L9.78573 4.60692L9.83489 6.03097C9.60097 6.0387 9.36238 6.05194 9.12428 6.06503L9.07504 4.63164L8.18511 4.66247L8.23581 6.12456C8.04324 6.13501 7.85382 6.14559 7.66935 6.15164L7.66907 6.14704L6.44124 6.18939L6.47438 7.14004C6.47438 7.14004 7.13155 7.10465 7.12106 7.11702C7.48162 7.10472 7.60595 7.30991 7.64654 7.48969L7.70467 9.15562C7.7294 9.15478 7.76168 9.15489 7.79904 9.15823L7.70488 9.1618L7.78591 11.4958C7.77378 11.6095 7.71341 11.7927 7.46122 11.8021C7.47332 11.8116 6.81441 11.8246 6.81441 11.8246L6.67443 12.8935L7.83317 12.8533C8.04854 12.8462 8.26076 12.8426 8.46866 12.8366L8.52053 14.3155L9.40985 14.2843L9.35902 12.8218C9.60338 12.8178 9.83977 12.8114 10.0705 12.8036L10.1207 14.2601L11.0105 14.2288L10.9594 12.7528C12.4532 12.6149 13.4874 12.2016 13.5687 10.7917C13.6346 9.6566 13.0847 9.16973 12.228 8.99545C12.7354 8.71485 13.0416 8.24066 12.9393 7.47158ZM11.8034 10.6775C11.8429 11.7829 9.94547 11.7227 9.34206 11.7442L9.27463 9.7845C9.87832 9.76392 11.7639 9.52478 11.8034 10.6775ZM11.2936 7.92702C11.3285 8.93282 9.74591 8.8698 9.2438 8.88729L9.18201 7.11057C9.68412 7.09309 11.2572 6.87795 11.2936 7.92702Z" fill="#0E56C0" fill-opacity="0.56"/>
</g>
<path d="M12.9393 7.47158C12.8016 6.42088 11.8787 6.09913 10.7264 6.03819L10.6755 4.57562L9.78573 4.60692L9.83489 6.03097C9.60097 6.0387 9.36238 6.05194 9.12428 6.06503L9.07504 4.63164L8.18511 4.66247L8.23581 6.12456C8.04324 6.13501 7.85382 6.14559 7.66935 6.15164L7.66907 6.14704L6.44124 6.18939L6.47438 7.14004C6.47438 7.14004 7.13155 7.10465 7.12106 7.11702C7.48162 7.10472 7.60595 7.30991 7.64654 7.48969L7.70467 9.15562C7.7294 9.15478 7.76168 9.15489 7.79904 9.15823L7.70488 9.1618L7.78591 11.4958C7.77378 11.6095 7.71341 11.7927 7.46122 11.8021C7.47332 11.8116 6.81441 11.8246 6.81441 11.8246L6.67443 12.8935L7.83317 12.8533C8.04854 12.8462 8.26076 12.8426 8.46866 12.8366L8.52053 14.3155L9.40985 14.2843L9.35902 12.8218C9.60338 12.8178 9.83977 12.8114 10.0705 12.8036L10.1207 14.2601L11.0105 14.2288L10.9594 12.7528C12.4532 12.6149 13.4874 12.2016 13.5687 10.7917C13.6346 9.6566 13.0847 9.16973 12.228 8.99545C12.7354 8.71485 13.0416 8.24066 12.9393 7.47158ZM11.8034 10.6775C11.8429 11.7829 9.94547 11.7227 9.34206 11.7442L9.27463 9.7845C9.87832 9.76392 11.7639 9.52478 11.8034 10.6775ZM11.2936 7.92702C11.3285 8.93282 9.74591 8.8698 9.2438 8.88729L9.18201 7.11057C9.68412 7.09309 11.2572 6.87795 11.2936 7.92702Z" fill="white"/>
</g>
<defs>
<filter id="filter0_d_519:1258" x="1.25452" y="1.41162" width="17.0039" height="17.0039" filterUnits="userSpaceOnUse" color-interpolation-filters="sRGB">
<feFlood flood-opacity="0" result="BackgroundImageFix"/>
<feColorMatrix in="SourceAlpha" type="matrix" values="0 0 0 0 0 0 0 0 0 0 0 0 0 0 0 0 0 0 127 0" result="hardAlpha"/>
<feOffset dy="0.5"/>
<feGaussianBlur stdDeviation="0.5"/>
<feColorMatrix type="matrix" values="0 0 0 0 0 0 0 0 0 0 0 0 0 0 0 0 0 0 0.199474 0"/>
<feBlend mode="normal" in2="BackgroundImageFix" result="effect1_dropShadow_519:1258"/>
<feBlend mode="normal" in="SourceGraphic" in2="effect1_dropShadow_519:1258" result="shape"/>
</filter>
<filter id="filter1_d_519:1258" x="5.44128" y="4.07568" width="9.13269" height="11.7397" filterUnits="userSpaceOnUse" color-interpolation-filters="sRGB">
<feFlood flood-opacity="0" result="BackgroundImageFix"/>
<feColorMatrix in="SourceAlpha" type="matrix" values="0 0 0 0 0 0 0 0 0 0 0 0 0 0 0 0 0 0 127 0" result="hardAlpha"/>
<feOffset dy="0.5"/>
<feGaussianBlur stdDeviation="0.5"/>
<feColorMatrix type="matrix" values="0 0 0 0 0 0 0 0 0 0 0 0 0 0 0 0 0 0 0.204257 0"/>
<feBlend mode="normal" in2="BackgroundImageFix" result="effect1_dropShadow_519:1258"/>
<feBlend mode="normal" in="SourceGraphic" in2="effect1_dropShadow_519:1258" result="shape"/>
</filter>
<linearGradient id="paint0_linear_519:1258" x1="7.69057" y1="2.20364" x2="11.8224" y2="16.6234" gradientUnits="userSpaceOnUse">
<stop stop-color="white" stop-opacity="0.5"/>
<stop offset="1" stop-opacity="0.5"/>
</linearGradient>
<clipPath id="clip0_519:1258">
<rect width="16" height="16" fill="white" transform="translate(0 4.40723) rotate(-15.989)"/>
</clipPath>
</defs>
</svg>
