<?xml version="1.0" encoding="utf-8"?>
<!-- Generator: Adobe Illustrator 23.0.5, SVG Export Plug-In . SVG Version: 6.00 Build 0)  -->
<svg version="1.1" id="Layer_1" xmlns="http://www.w3.org/2000/svg" xmlns:xlink="http://www.w3.org/1999/xlink" x="0px" y="0px"
	 viewBox="0 0 54 54" style="enable-background:new 0 0 54 54;" xml:space="preserve">
<style type="text/css">
	.st0{fill:#2E59F2;}
	.st1{fill:#FFFFFF;}
</style>
<circle class="st0" cx="27" cy="27" r="27"/>
<g>
	<g>
		<g>
			<path class="st1" d="M23,26c0.5,0.7,1.2,1.3,2,1.6c2.4,1.2,4.8,1,7-0.7c2.9-2.2,3.5-6.2,1.6-9.2c-1.8-2.8-5.6-3.8-8.6-2.3
				c-2.4,1.3-3.7,3.3-3.7,6.1c0,1.3,0,2.7,0,3.9c0,4.2,0,8.4,0,12.6c0,0.7-0.1,1.4,0,2c0,0.2-0.1,0.3-0.3,0.5
				c-1.6,1.3-3.1,2.5-4.7,3.8c-0.3,0.3-0.7,0.5-1,0.8c-0.1,0.1-0.1,0.2-0.2,0.1s-0.1-0.1-0.1-0.3c0-1.3,0-2.7,0-3.9
				c0-1.6,0-3.1,0-4.6c0-5,0-10.1,0-15.2c0.1-3.5,1.4-6.6,3.9-9c2.8-2.7,6.1-3.9,10-3.7c2.1,0.1,4.1,0.8,5.9,2
				c1.4,0.9,2.4,1.9,3.4,3.2c1.4,1.8,2.2,3.9,2.4,6.1c0.3,2.5-0.1,4.9-1.2,7.2c-1,2-2.3,3.6-4,4.9c-2.4,1.8-5.2,2.6-8.3,2.4
				c-1.4-0.1-2.9-0.4-4.2-1c-0.2-0.1-0.3-0.2-0.3-0.5c0-2.2,0-4.5,0-6.7C22.9,26.3,22.9,26.1,23,26z"/>
			<path class="st1" d="M28,23.7c0,0.3,0,0.5,0,0.7c0,0.5-0.1,0.7-0.5,0.7c-0.3,0-0.5-0.2-0.5-0.7s0-0.9,0-1.4
				c0-0.3-0.3-0.7-0.5-0.7c-0.2-0.1-0.4,0.1-0.4,0.4c0,1,0,2,0,2.9c0,0.1,0,0.3,0,0.3c-0.1,0.3-0.2,0.5-0.5,0.5
				c-0.3,0-0.5-0.2-0.5-0.5c0-0.9,0-1.7,0-2.6c0-0.4,0-0.4-0.4-0.3c-0.3,0.1-0.5,0.4-0.5,0.7c0,0.3,0,0.5,0,0.8
				c0,0.3-0.2,0.5-0.5,0.5c-0.3,0-0.5-0.2-0.5-0.5c0-0.3,0.1-0.6-0.1-0.7c-0.1-0.1-0.5,0.2-0.7,0.3c-0.2,0.1-0.5,0.3-0.7,0.3
				c-0.2,0.1-0.4,0.3-0.5-0.1c-0.1-0.3,0.1-0.3,0.3-0.5c0.5-0.3,1.1-0.6,1.6-0.9c1-0.5,2-1.1,3.1-1.6c0.2-0.1,0.4-0.1,0.6,0.1
				c0.5,0.5,1,0.9,1.6,1.4c0.1,0.1,0.3,0.1,0.5,0.1c1.4-0.7,2.8-1.3,4.1-1.9c0.3-0.1,0.4-0.2,0.3-0.5c-0.1-0.2,0.1-0.2,0.2-0.2
				c0.4,0.1,0.7,0.1,1.2,0.1c0.1,0,0.3,0.1,0.1,0.3c-0.3,0.3-0.5,0.7-0.7,1c-0.1,0.2-0.2,0.1-0.3-0.1c-0.1-0.2-0.2-0.2-0.4-0.1
				c-0.4,0.2-0.8,0.4-1.2,0.5c-0.3,0.1-0.3,0.3-0.3,0.5c0,0.6,0,1.2,0,1.8c0,0.4-0.2,0.6-0.5,0.6c-0.3,0-0.5-0.2-0.5-0.6
				c0-0.5,0-1,0-1.5c0-0.2-0.1-0.3-0.2-0.1c-0.7,0.3-0.7,0.3-0.7,1c0,1.2,0,2.4,0,3.7c0,0.3-0.1,0.5-0.5,0.5c-0.3,0-0.5-0.2-0.5-0.5
				c0-0.1,0-0.2,0-0.3c0-1,0-2,0-3.1c0-0.2,0.1-0.5-0.3-0.3C28.3,24,28.2,23.8,28,23.7z"/>
			<path class="st1" d="M28.8,20.1c0-0.7,0-1.5,0-2.2c0-0.1,0-0.2,0-0.3c0.1-0.3,0.3-0.4,0.5-0.4s0.4,0.2,0.4,0.5c0,1.6,0,3.2,0,4.8
				c0,0.2-0.6,0.7-0.8,0.5c-0.1-0.1-0.1-0.2-0.1-0.3C28.8,21.7,28.8,20.9,28.8,20.1z"/>
			<path class="st1" d="M25.1,20.4c0-0.5,0-0.9,0-1.4c0-0.3,0.1-0.5,0.5-0.5c0.3,0,0.5,0.2,0.5,0.5c0,0.8,0,1.6,0,2.4
				c0,0.2-0.7,0.7-0.8,0.6c-0.1,0-0.1-0.2-0.1-0.3C25.1,21.3,25.1,20.9,25.1,20.4z"/>
			<path class="st1" d="M24.3,21.4c0,0.2,0,0.4,0,0.6c0,0.7-0.1,0.7-0.7,1c-0.2,0.1-0.3,0-0.3-0.2c0-0.8,0-1.7,0-2.5
				c0-0.3,0.2-0.5,0.5-0.5c0.3,0,0.5,0.2,0.5,0.5C24.3,20.6,24.3,21,24.3,21.4L24.3,21.4z"/>
			<path class="st1" d="M28,21.4c0,0.3,0,0.6,0,1c0,0.2-0.1,0.3-0.3,0.1c-0.5-0.3-0.8-0.7-0.7-1.4c0.1-0.2,0-0.5,0-0.7
				c0-0.3,0.2-0.5,0.5-0.5c0.3,0,0.5,0.2,0.5,0.5C28,20.7,28,21.1,28,21.4z"/>
			<path class="st1" d="M30.7,21c0-0.2,0-0.5,0-0.7c0-0.3,0.2-0.5,0.5-0.5s0.5,0.2,0.5,0.6c0,0.2,0,0.4,0,0.6c0,0.7-0.1,0.8-0.7,1
				c-0.2,0.1-0.3,0-0.3-0.2C30.7,21.6,30.7,21.3,30.7,21z"/>
		</g>
	</g>
</g>
</svg>
