<svg width="169" height="54" viewBox="0 0 169 54" fill="none" xmlns="http://www.w3.org/2000/svg">
<path d="M46.862 18.726V17.164H43.584V29H47.016V23.412C47.016 21.146 48.27 20.112 50.162 20.112C50.426 20.112 50.646 20.134 50.932 20.156V16.988C49.106 16.988 47.698 17.582 46.862 18.726ZM64.9593 23.126C64.9593 19.32 62.2753 16.988 58.7993 16.988C55.1913 16.988 52.4853 19.54 52.4853 23.082C52.4853 26.602 55.1473 29.176 59.2393 29.176C61.3733 29.176 63.0233 28.516 64.1233 27.262L62.2973 25.282C61.4833 26.052 60.5813 26.426 59.3273 26.426C57.5233 26.426 56.2693 25.524 55.9393 24.05H64.8933C64.9153 23.764 64.9593 23.39 64.9593 23.126ZM58.8213 19.584C60.3613 19.584 61.4833 20.552 61.7253 22.048H55.8953C56.1373 20.53 57.2593 19.584 58.8213 19.584ZM76.3682 12.676V18.418C75.5102 17.45 74.2782 16.988 72.8262 16.988C69.4822 16.988 66.9082 19.364 66.9082 23.082C66.9082 26.8 69.4822 29.176 72.8262 29.176C74.4102 29.176 75.6642 28.67 76.5222 27.636V29H79.8002V12.676H76.3682ZM73.4202 26.36C71.7042 26.36 70.3842 25.128 70.3842 23.082C70.3842 21.036 71.7042 19.804 73.4202 19.804C75.1142 19.804 76.4342 21.036 76.4342 23.082C76.4342 25.128 75.1142 26.36 73.4202 26.36ZM85.1926 15.514C86.4686 15.514 87.3266 14.678 87.3266 13.534C87.3266 12.478 86.4686 11.686 85.1926 11.686C83.9166 11.686 83.0586 12.522 83.0586 13.6C83.0586 14.678 83.9166 15.514 85.1926 15.514ZM83.4766 29H86.9086V17.164H83.4766V29ZM96.3138 29.176C98.7998 29.176 100.758 28.076 101.616 26.184L98.9538 24.732C98.3158 25.876 97.3698 26.36 96.2918 26.36C94.5538 26.36 93.1898 25.15 93.1898 23.082C93.1898 21.014 94.5538 19.804 96.2918 19.804C97.3698 19.804 98.3158 20.31 98.9538 21.432L101.616 20.002C100.758 18.066 98.7998 16.988 96.3138 16.988C92.4638 16.988 89.7138 19.518 89.7138 23.082C89.7138 26.646 92.4638 29.176 96.3138 29.176ZM110.974 26.008C110.6 26.294 110.094 26.448 109.588 26.448C108.664 26.448 108.114 25.898 108.114 24.886V20.068H111.062V17.428H108.114V14.546H104.682V17.428H102.856V20.068H104.682V24.93C104.682 27.746 106.31 29.176 109.104 29.176C110.16 29.176 111.194 28.934 111.898 28.428L110.974 26.008ZM119.679 29.176C122.165 29.176 124.123 28.076 124.981 26.184L122.319 24.732C121.681 25.876 120.735 26.36 119.657 26.36C117.919 26.36 116.555 25.15 116.555 23.082C116.555 21.014 117.919 19.804 119.657 19.804C120.735 19.804 121.681 20.31 122.319 21.432L124.981 20.002C124.123 18.066 122.165 16.988 119.679 16.988C115.829 16.988 113.079 19.518 113.079 23.082C113.079 26.646 115.829 29.176 119.679 29.176ZM132.939 29.176C136.701 29.176 139.429 26.646 139.429 23.082C139.429 19.518 136.701 16.988 132.939 16.988C129.177 16.988 126.427 19.518 126.427 23.082C126.427 26.646 129.177 29.176 132.939 29.176ZM132.939 26.36C131.223 26.36 129.903 25.128 129.903 23.082C129.903 21.036 131.223 19.804 132.939 19.804C134.655 19.804 135.953 21.036 135.953 23.082C135.953 25.128 134.655 26.36 132.939 26.36ZM143.939 15.514C145.215 15.514 146.073 14.678 146.073 13.534C146.073 12.478 145.215 11.686 143.939 11.686C142.663 11.686 141.805 12.522 141.805 13.6C141.805 14.678 142.663 15.514 143.939 15.514ZM142.223 29H145.655V17.164H142.223V29ZM156.534 16.988C154.928 16.988 153.542 17.538 152.618 18.55V17.164H149.34V29H152.772V23.148C152.772 20.97 153.96 19.958 155.61 19.958C157.128 19.958 158.008 20.838 158.008 22.752V29H161.44V22.224C161.44 18.616 159.328 16.988 156.534 16.988Z" fill="white"/>
<g clip-path="url(#clip0)">
<path d="M11.6436 25.5279C12.449 26.62 13.4873 27.3903 14.6615 27.9461C18.2713 29.633 21.7549 29.36 24.9669 26.9905C29.256 23.8215 30.2166 17.9223 27.2764 13.4662C24.5788 9.39033 19.0282 7.8692 14.6906 10.1119C11.0905 11.9743 9.23708 15.0165 9.14974 19.1021C9.11093 21.0426 9.14004 22.9927 9.13033 24.9331C9.12063 31.1151 9.13033 37.2972 9.10122 43.4792C9.10122 44.464 9.043 45.4586 9.0527 46.4532C9.0527 46.7652 8.92655 46.9602 8.69366 47.1455C6.40357 48.9981 4.12318 50.8703 1.8428 52.7327C1.36731 53.1227 0.891826 53.5128 0.416341 53.9028C0.329007 53.9808 0.231969 54.0588 0.115524 54.0003C-0.0203288 53.9321 -0.000921296 53.776 -0.000921296 53.6493C-0.000921296 51.7186 -0.0300326 49.7782 0.0184863 47.8475C0.0670052 45.5951 0.0670052 43.3329 0.0670052 41.0805C0.0864127 33.6406 0.0378938 26.2105 0.115524 18.7804C0.173747 13.5734 2.09509 9.08805 5.80194 5.44124C9.88723 1.42391 14.8362 -0.311738 20.5032 0.0490425C23.6472 0.244059 26.568 1.25814 29.2463 2.98404C31.2064 4.24189 32.8852 5.79227 34.2631 7.66443C36.233 10.3459 37.4654 13.3394 37.8535 16.6547C38.2902 20.3405 37.7565 23.88 36.1651 27.2441C34.7871 30.1498 32.8076 32.5485 30.2263 34.4304C26.5971 37.0729 22.5215 38.2625 18.0578 38.0577C15.9327 37.9602 13.8658 37.4824 11.8862 36.6731C11.566 36.5463 11.4398 36.3611 11.4398 36.0198C11.4495 32.7338 11.4495 29.4575 11.4592 26.1715C11.4495 25.9472 11.4107 25.7034 11.6436 25.5279Z" fill="white"/>
<path d="M18.9418 22.1929C18.9418 22.5731 18.9418 22.8949 18.9418 23.2167C18.9418 23.9578 18.7283 24.2698 18.2237 24.2698C17.7094 24.2795 17.4862 23.9675 17.4862 23.2362C17.4862 22.5829 17.4862 21.9296 17.4862 21.2763C17.4862 20.8765 17.0496 20.272 16.6808 20.1647C16.3703 20.0672 16.118 20.311 16.118 20.7595C16.1083 22.1929 16.118 23.6262 16.1083 25.0694C16.1083 25.2546 16.118 25.4301 16.0986 25.6154C16.0404 26.1127 15.7687 26.3662 15.3223 26.337C14.8565 26.3077 14.6624 26.0152 14.6624 25.5764C14.6624 24.3088 14.6624 23.0314 14.6527 21.7638C14.6527 21.1593 14.6333 21.1788 14.0802 21.403C13.5465 21.6176 13.3427 21.9686 13.4009 22.5341C13.4398 22.9339 13.4203 23.3337 13.4009 23.7335C13.3815 24.221 13.0904 24.5038 12.6537 24.4843C12.1977 24.4648 11.9842 24.2015 11.9454 23.753C11.9066 23.3922 12.1297 22.8559 11.8095 22.7097C11.5863 22.6121 11.1497 22.9827 10.81 23.1582C10.4704 23.3337 10.1502 23.5287 9.81054 23.6945C9.53884 23.831 9.24773 24.1138 9.00513 23.6262C8.78194 23.1777 9.15069 23.0997 9.40299 22.9632C10.1987 22.5244 10.9944 22.0954 11.7901 21.6761C13.2748 20.8863 14.7692 20.1062 16.2441 19.2969C16.5838 19.1116 16.8167 19.1409 17.1078 19.4041C17.8453 20.0769 18.6216 20.701 19.3688 21.364C19.6017 21.5688 19.786 21.5688 20.048 21.4421C22.0761 20.4865 24.1139 19.5309 26.142 18.5948C26.5107 18.429 26.7824 18.273 26.5593 17.7952C26.4428 17.5417 26.6466 17.4832 26.8504 17.5027C27.4229 17.571 27.9954 17.6392 28.5679 17.7172C28.8008 17.7465 28.9658 17.8635 28.7717 18.117C28.403 18.6143 28.0342 19.1019 27.6558 19.5894C27.4423 19.8624 27.3162 19.6869 27.2385 19.4724C27.1221 19.1409 26.928 19.1311 26.6466 19.2676C26.0644 19.5601 25.4821 19.8429 24.8805 20.0964C24.4924 20.2622 24.3371 20.4962 24.3468 20.9253C24.3759 21.8126 24.3565 22.7097 24.3565 23.597C24.3468 24.182 24.0945 24.4843 23.6287 24.4843C23.1629 24.4843 22.9106 24.182 22.9009 23.6067C22.8912 22.8754 22.8912 22.1539 22.9009 21.4225C22.9009 21.1593 22.8427 21.0618 22.5516 21.1788C21.5812 21.5493 21.5424 21.5883 21.5424 22.6219C21.5424 24.4161 21.5424 26.22 21.5424 28.0141C21.5424 28.4821 21.3483 28.7942 20.8631 28.8332C20.4265 28.8722 20.1354 28.5601 20.0965 28.0336C20.0868 27.8678 20.0868 27.7021 20.0868 27.5461C20.0868 26.0347 20.0868 24.5331 20.0868 23.0217C20.0868 22.6999 20.2033 22.2806 19.5919 22.5049C19.3882 22.5731 19.2426 22.2806 18.9418 22.1929Z" fill="white"/>
<path d="M20.1062 16.8202C20.1062 15.7086 20.1062 14.6067 20.1062 13.4951C20.1062 13.3294 20.0965 13.1636 20.1354 13.0076C20.2227 12.5981 20.4944 12.364 20.902 12.3933C21.2901 12.4128 21.5327 12.6663 21.5327 13.0758C21.5327 15.416 21.5424 17.7562 21.5327 20.0964C21.5327 20.428 20.5914 21.052 20.2906 20.935C20.048 20.8375 20.1159 20.6035 20.1159 20.4182C20.1062 19.2189 20.1062 18.0195 20.1062 16.8202Z" fill="white"/>
<path d="M14.6624 17.2785C14.6624 16.6251 14.6624 15.9718 14.6624 15.3185C14.6624 14.8603 14.8759 14.5775 15.3223 14.5482C15.7784 14.519 16.0501 14.831 16.0598 15.2503C16.0986 16.4301 16.0889 17.61 16.0792 18.7898C16.0792 19.0726 15.1088 19.7552 14.8371 19.6869C14.6042 19.6381 14.6721 19.4334 14.6624 19.2871C14.6624 18.6241 14.6624 17.9513 14.6624 17.2785Z" fill="white"/>
<path d="M13.3912 18.6923C13.3912 18.9848 13.3912 19.2676 13.3912 19.5601C13.3912 20.5937 13.3233 20.6815 12.3626 21.0618C12.0618 21.1788 11.9551 21.091 11.9551 20.7985C11.9551 19.5699 11.9454 18.3315 11.9648 17.1029C11.9745 16.6836 12.2171 16.4204 12.644 16.4106C13.1001 16.4009 13.3524 16.6739 13.3718 17.1127C13.4009 17.6392 13.3815 18.1658 13.3912 18.6923C13.3815 18.6923 13.3912 18.6923 13.3912 18.6923Z" fill="white"/>
<path d="M18.9224 18.741C18.9224 19.2091 18.9321 19.6869 18.9224 20.1549C18.9224 20.4767 18.806 20.5254 18.5245 20.3402C17.8259 19.8526 17.3019 19.2871 17.4765 18.3315C17.5348 18.0195 17.4862 17.6782 17.4862 17.3564C17.4959 16.8981 17.7385 16.6349 18.1849 16.6251C18.641 16.6154 18.8836 16.8981 18.903 17.3369C18.9418 17.805 18.9224 18.273 18.9224 18.741Z" fill="white"/>
<path d="M22.9203 18.2048C22.9203 17.883 22.9106 17.5515 22.9203 17.2297C22.9398 16.6934 23.2115 16.3911 23.6481 16.4009C24.0751 16.4106 24.3274 16.7129 24.3468 17.2589C24.3565 17.5612 24.3468 17.8732 24.3468 18.1853C24.3468 19.1701 24.2109 19.3359 23.2697 19.6284C22.9786 19.7161 22.9106 19.6089 22.9106 19.3554C22.9203 18.9653 22.9203 18.585 22.9203 18.2048Z" fill="white"/>
</g>
<defs>
<clipPath id="clip0">
<rect width="38" height="54" fill="white"/>
</clipPath>
</defs>
</svg>
