<svg width="38" height="54" viewBox="0 0 38 54" fill="none" xmlns="http://www.w3.org/2000/svg">
<g clip-path="url(#clip0)">
<path d="M11.6437 25.5279C12.4491 26.62 13.4874 27.3903 14.6615 27.9461C18.2714 29.633 21.755 29.36 24.967 26.9905C29.256 23.8215 30.2167 17.9223 27.2765 13.4662C24.5788 9.39033 19.0282 7.8692 14.6907 10.1119C11.0906 11.9743 9.23714 15.0165 9.1498 19.1021C9.11099 21.0426 9.1401 22.9927 9.13039 24.9331C9.12069 31.1151 9.1304 37.2972 9.10128 43.4792C9.10128 44.464 9.04306 45.4586 9.05276 46.4532C9.05276 46.7652 8.92662 46.9602 8.69373 47.1455C6.40363 48.9981 4.12325 50.8703 1.84286 52.7327C1.36737 53.1227 0.891887 53.5128 0.416402 53.9028C0.329068 53.9808 0.23203 54.0588 0.115585 54.0003C-0.0202678 53.9321 -0.000860261 53.776 -0.000860261 53.6493C-0.000860261 51.7186 -0.0299716 49.7782 0.0185473 47.8475C0.0670662 45.5951 0.0670662 43.3329 0.0670662 41.0805C0.0864737 33.6406 0.0379549 26.2105 0.115585 18.7804C0.173808 13.5734 2.09516 9.08805 5.802 5.44124C9.88729 1.42391 14.8362 -0.311738 20.5032 0.0490425C23.6472 0.244059 26.5681 1.25814 29.2463 2.98404C31.2065 4.24189 32.8852 5.79227 34.2632 7.66443C36.2331 10.3459 37.4654 13.3394 37.8536 16.6547C38.2903 20.3405 37.7565 23.88 36.1651 27.2441C34.7872 30.1498 32.8076 32.5485 30.2264 34.4304C26.5972 37.0729 22.5216 38.2625 18.0579 38.0577C15.9327 37.9602 13.8658 37.4824 11.8863 36.6731C11.566 36.5463 11.4399 36.3611 11.4399 36.0198C11.4496 32.7338 11.4496 29.4575 11.4593 26.1715C11.4496 25.9472 11.4108 25.7034 11.6437 25.5279Z" fill="#2E59F2"/>
<path d="M18.9419 22.1929C18.9419 22.5731 18.9419 22.8949 18.9419 23.2167C18.9419 23.9578 18.7284 24.2698 18.2238 24.2698C17.7095 24.2795 17.4863 23.9675 17.4863 23.2362C17.4863 22.5829 17.4863 21.9296 17.4863 21.2763C17.4863 20.8765 17.0496 20.272 16.6809 20.1647C16.3704 20.0672 16.1181 20.311 16.1181 20.7595C16.1084 22.1929 16.1181 23.6262 16.1084 25.0694C16.1084 25.2546 16.1181 25.4301 16.0987 25.6154C16.0404 26.1127 15.7687 26.3662 15.3223 26.337C14.8566 26.3077 14.6625 26.0152 14.6625 25.5764C14.6625 24.3088 14.6625 23.0314 14.6528 21.7638C14.6528 21.1593 14.6334 21.1788 14.0803 21.403C13.5466 21.6176 13.3428 21.9686 13.401 22.5341C13.4398 22.9339 13.4204 23.3337 13.401 23.7335C13.3816 24.221 13.0905 24.5038 12.6538 24.4843C12.1977 24.4648 11.9843 24.2015 11.9454 23.753C11.9066 23.3922 12.1298 22.8559 11.8096 22.7097C11.5864 22.6121 11.1497 22.9827 10.8101 23.1582C10.4705 23.3337 10.1502 23.5287 9.81061 23.6945C9.5389 23.831 9.24779 24.1138 9.00519 23.6262C8.78201 23.1777 9.15075 23.0997 9.40305 22.9632C10.1988 22.5244 10.9945 22.0954 11.7902 21.6761C13.2749 20.8863 14.7692 20.1062 16.2442 19.2969C16.5838 19.1116 16.8167 19.1409 17.1078 19.4041C17.8453 20.0769 18.6216 20.701 19.3688 21.364C19.6017 21.5688 19.7861 21.5688 20.0481 21.4421C22.0762 20.4865 24.114 19.5309 26.1421 18.5948C26.5108 18.429 26.7825 18.273 26.5593 17.7952C26.4429 17.5417 26.6467 17.4832 26.8504 17.5027C27.423 17.571 27.9955 17.6392 28.568 17.7172C28.8009 17.7465 28.9659 17.8635 28.7718 18.117C28.403 18.6143 28.0343 19.1019 27.6558 19.5894C27.4424 19.8624 27.3162 19.6869 27.2386 19.4724C27.1221 19.1409 26.9281 19.1311 26.6467 19.2676C26.0644 19.5601 25.4822 19.8429 24.8806 20.0964C24.4924 20.2622 24.3372 20.4962 24.3469 20.9253C24.376 21.8126 24.3566 22.7097 24.3566 23.597C24.3469 24.182 24.0946 24.4843 23.6288 24.4843C23.163 24.4843 22.9107 24.182 22.901 23.6067C22.8913 22.8754 22.8913 22.1539 22.901 21.4225C22.901 21.1593 22.8428 21.0618 22.5517 21.1788C21.5813 21.5493 21.5425 21.5883 21.5425 22.6219C21.5425 24.4161 21.5425 26.22 21.5425 28.0141C21.5425 28.4821 21.3484 28.7942 20.8632 28.8332C20.4265 28.8722 20.1354 28.5601 20.0966 28.0336C20.0869 27.8678 20.0869 27.7021 20.0869 27.5461C20.0869 26.0347 20.0869 24.5331 20.0869 23.0217C20.0869 22.6999 20.2033 22.2806 19.592 22.5049C19.3882 22.5731 19.2427 22.2806 18.9419 22.1929Z" fill="#2E59F2"/>
<path d="M20.1063 16.8202C20.1063 15.7086 20.1063 14.6067 20.1063 13.4951C20.1063 13.3294 20.0966 13.1636 20.1354 13.0076C20.2227 12.5981 20.4945 12.364 20.902 12.3933C21.2902 12.4128 21.5328 12.6663 21.5328 13.0758C21.5328 15.416 21.5425 17.7562 21.5328 20.0964C21.5328 20.428 20.5915 21.052 20.2907 20.935C20.0481 20.8375 20.116 20.6035 20.116 20.4182C20.1063 19.2189 20.1063 18.0195 20.1063 16.8202Z" fill="#2E59F2"/>
<path d="M14.6626 17.2785C14.6626 16.6251 14.6626 15.9718 14.6626 15.3185C14.6626 14.8603 14.876 14.5775 15.3224 14.5482C15.7785 14.519 16.0502 14.831 16.0599 15.2503C16.0987 16.4301 16.089 17.61 16.0793 18.7898C16.0793 19.0726 15.1089 19.7552 14.8372 19.6869C14.6043 19.6381 14.6723 19.4334 14.6626 19.2871C14.6626 18.6241 14.6626 17.9513 14.6626 17.2785Z" fill="#2E59F2"/>
<path d="M13.3912 18.6923C13.3912 18.9848 13.3912 19.2676 13.3912 19.5601C13.3912 20.5937 13.3233 20.6815 12.3626 21.0618C12.0618 21.1788 11.9551 21.091 11.9551 20.7985C11.9551 19.5699 11.9454 18.3315 11.9648 17.1029C11.9745 16.6836 12.2171 16.4204 12.644 16.4106C13.1001 16.4009 13.3524 16.6739 13.3718 17.1127C13.4009 17.6392 13.3815 18.1658 13.3912 18.6923C13.3912 18.6923 13.3815 18.6923 13.3912 18.6923Z" fill="#2E59F2"/>
<path d="M18.9223 18.741C18.9223 19.2091 18.932 19.6869 18.9223 20.1549C18.9223 20.4767 18.8059 20.5254 18.5245 20.3402C17.8258 19.8526 17.3018 19.2871 17.4765 18.3315C17.5347 18.0195 17.4862 17.6782 17.4862 17.3564C17.4959 16.8981 17.7385 16.6349 18.1849 16.6251C18.6409 16.6154 18.8835 16.8981 18.9029 17.3369C18.9417 17.805 18.9223 18.273 18.9223 18.741Z" fill="#2E59F2"/>
<path d="M22.9203 18.2048C22.9203 17.883 22.9106 17.5515 22.9203 17.2297C22.9398 16.6934 23.2115 16.3911 23.6481 16.4009C24.0751 16.4106 24.3274 16.7129 24.3468 17.2589C24.3565 17.5612 24.3468 17.8732 24.3468 18.1853C24.3468 19.1701 24.2109 19.3359 23.2697 19.6284C22.9786 19.7161 22.9106 19.6089 22.9106 19.3554C22.9203 18.9653 22.9203 18.585 22.9203 18.2048Z" fill="#2E59F2"/>
</g>
<defs>
<clipPath id="clip0">
<rect width="38" height="54" fill="white"/>
</clipPath>
</defs>
</svg>
